# xmcd
#
# Track frame offsets:
#	150
#	13448
#	23923
#	34729
#	46232
#	59093
#	71127
#	84092
#	97258
#	111912
#	124399
#	135545
#	148066
#	160631
#	172517
#	183819
#	195966
#	207059
#	218440
#	230465
#	242368
#	255786
#	267924
#	278905
#
# Disc length: 3886 seconds
#
# Revision: 0
# Processed by: cddbd v1.5.2PL0 Copyright (c) Steve Scherf et al.
# Submitted via: dBpowerAMP V4.0
#
DISCID=460f2c18
DTITLE=Roy Brown - Good rokin' tonight
DYEAR=1900
DGENRE=Blues
TTITLE0=Good rokin' tonight
TTITLE1=Lolly pop Mama
TTITLE2=Mighty mighty man
TTITLE3=Miss Fanny Brown return
TTITLE4=Boogie as midnight
TTITLE5=Love don't love nobody
TTITLE6=Cadillac baby
TTITLE7=Teenage jamboree
TTITLE8=Good man blues
TTITLE9=Grandpa stole my baby
TTITLE10=Mr Hound dog's in town
TTITLE11=Caldonia's wedding day
TTITLE12=Wynomie's blues
TTITLE13=Playful baby
TTITLE14=Hey ba-ba-re-bop
TTITLE15=Good rokin' tonight 2
TTITLE16=Drinkin' wine spoo-dee-o-dee
TTITLE17=All she wants to do is rock
TTITLE18=Good morning judge
TTITLE19=Rock Mr Blues
TTITLE20=Mr Bues is coming to town
TTITLE21=Bloodshot eyes
TTITLE22=Lovin' machine
TTITLE23=Confessin' the blues
EXTD=
EXTT0=
EXTT1=
EXTT2=
EXTT3=
EXTT4=
EXTT5=
EXTT6=
EXTT7=
EXTT8=
EXTT9=
EXTT10=
EXTT11=
EXTT12=
EXTT13=
EXTT14=
EXTT15=
EXTT16=
EXTT17=
EXTT18=
EXTT19=
EXTT20=
EXTT21=
EXTT22=
EXTT23=
PLAYORDER=
